<svg width="21" height="33" viewBox="0 0 21 33" fill="none" xmlns="http://www.w3.org/2000/svg">
<path d="M5.69326 21.1219C5.68128 21.0772 5.71401 21.0205 5.77047 21.0358C6.6767 21.229 7.59683 21.4095 8.48662 21.6723C8.51695 21.6555 8.54833 21.6427 8.57891 21.6258C7.88223 20.653 6.65145 20.7125 5.58899 20.9928C5.61932 21.0414 5.65989 21.0785 5.69326 21.1219ZM5.71809 21.1501C6.30794 21.9031 7.35805 22.1622 8.23751 21.8001C7.39698 21.6244 6.56166 21.386 5.73351 21.1588C5.72856 21.1559 5.72336 21.1531 5.71809 21.1501ZM20.6691 28.4516C20.741 28.4758 20.7264 28.5845 20.6518 28.5827C19.8101 28.5815 18.974 28.4701 18.1402 28.2706C17.3286 29.5038 15.6851 29.8612 14.3944 29.1608C14.2924 29.1054 14.2922 28.9746 14.3572 28.8919C14.8638 28.2767 15.5991 27.8487 16.3799 27.7047C15.7034 27.4413 15.0424 27.1215 14.3999 26.7576C13.2793 27.9602 11.4797 27.54 10.0512 27.0728C9.89706 27.0182 9.86416 26.8134 10.0055 26.7231C10.8464 26.2014 11.8834 25.6619 12.8471 25.7611C12.4201 25.4526 12.0032 25.1328 11.6022 24.7914C10.4333 25.863 8.61497 25.8445 7.47889 24.728C7.39578 24.6456 7.41261 24.4973 7.51497 24.4395C8.48017 23.8931 9.67565 23.6861 10.7393 24.0115C10.0199 23.3281 9.35812 22.5988 8.78681 21.8495C7.62434 22.7494 5.78799 22.3218 5.16578 20.976C5.12002 20.8707 5.15578 20.7433 5.27355 20.7117C6.18247 20.4595 7.30028 20.3692 8.08597 20.8778C8.0775 20.8628 8.06505 20.8486 8.05762 20.8375C7.49788 19.9848 7.02213 19.0878 6.62973 18.1599C6.67549 18.2652 6.71413 18.3772 6.74153 18.496C6.74697 18.5163 6.73498 18.5371 6.72102 18.5495C6.77859 18.5689 6.80366 18.6624 6.73907 18.7146C6.24805 19.0947 5.61681 19.098 5.06484 18.8275C4.36763 18.4869 3.97125 17.7562 3.64442 17.0896C3.5969 16.9934 3.63155 16.8793 3.74045 16.846C4.79988 16.5535 6.07349 17.0447 6.57432 18.0352C6.17489 17.0654 5.86409 16.0677 5.6396 15.0511C5.62172 15.0821 5.58946 15.1082 5.54252 15.1119C4.13393 15.2888 2.85238 14.0193 3.02669 12.6038C3.03937 12.5046 3.10612 12.4126 3.2195 12.4126C4.07575 12.4359 4.89513 12.8747 5.37965 13.56C5.2699 12.7439 5.21637 11.9255 5.21784 11.1012C3.45774 12 3.25638 8.95475 3.41275 7.97563C3.4276 7.88445 3.54711 7.82624 3.62824 7.85242C4.39723 8.08657 4.99368 8.57199 5.31069 9.2674C5.37558 8.63097 5.47102 7.99525 5.60354 7.36688C5.5756 7.40919 5.5261 7.43555 5.47747 7.40066C4.33646 6.60786 4.02706 5.09548 4.64604 3.87457C4.68971 3.79321 4.79351 3.77404 4.86569 3.81571C5.49312 4.14017 5.95975 4.67765 6.15332 5.31894C6.25128 5.018 6.35865 4.71898 6.47234 4.42692C6.48496 4.3929 6.50396 4.36607 6.52407 4.3434C6.51162 4.32919 6.49508 4.31634 6.48853 4.29191C6.18217 2.66087 7.53537 1.07328 9.20784 1.16589C9.28242 1.16764 9.33128 1.22002 9.33368 1.29348C9.43028 2.72802 8.41818 4.18913 6.97534 4.44926C6.9799 4.48286 6.97639 4.51863 6.96066 4.55767C6.70647 5.23619 6.49844 5.92382 6.3245 6.6243C6.76135 5.74888 7.68593 5.23064 8.70011 5.40353C8.75026 5.41183 8.78515 5.47659 8.7675 5.52505C8.4033 6.63842 7.53445 8.24418 6.10402 7.6075C5.97064 8.29712 5.87909 8.99726 5.82251 9.69694C6.28636 8.97115 7.07663 8.4716 7.96959 8.43738C8.03896 8.43633 8.0963 8.50372 8.09648 8.56887C8.10253 9.84437 7.05631 11.097 5.76702 11.1982C5.76841 11.952 5.81971 12.6966 5.91515 13.4427C6.27999 12.6083 7.01428 11.9321 7.85949 11.6053C7.94149 11.5703 8.02548 11.6394 8.05032 11.7155C8.51899 13.1069 7.63361 14.7478 6.21392 15.1109C6.38802 15.875 6.6204 16.6279 6.8975 17.3688C7.16795 16.3767 7.75956 15.4944 8.64779 14.9207C8.70344 14.884 8.77451 14.9215 8.79479 14.9816C9.19917 16.2464 9.05237 18.3998 7.42701 18.613C7.70433 19.1926 8.00809 19.7564 8.35519 20.3042C8.42977 20.4193 8.50826 20.5334 8.58564 20.6434C8.72172 19.6872 9.31205 18.8314 10.1509 18.3189C10.2216 18.2737 10.3244 18.2986 10.3612 18.3715C10.983 19.5213 10.6551 21.2088 9.48985 21.8874C10.098 22.6441 10.7708 23.349 11.4934 23.9965C10.9772 22.9318 10.5637 21.4863 11.7952 20.7465C11.8558 20.7127 11.9564 20.7295 11.9869 20.7954C12.4842 21.8872 12.9994 23.3533 11.8755 24.2515C11.8573 24.265 11.8421 24.2736 11.8218 24.279C12.4756 24.8318 13.1654 25.3401 13.8901 25.7998C13.9675 25.8445 14.0446 25.8891 14.1221 25.9338C13.2145 25.1002 12.9948 23.7772 13.5 22.6525C13.5494 22.5434 13.6968 22.5736 13.7535 22.6542C14.3834 23.5578 16.2306 25.2947 14.982 26.4096C15.7949 26.824 16.6277 27.1499 17.473 27.4422C16.5896 26.7155 16.1263 25.6539 16.2334 24.4919C16.2411 24.4071 16.3244 24.3106 16.4221 24.3497C17.7967 24.8924 18.7 26.3111 18.4919 27.7793C19.2072 28.0064 19.936 28.2207 20.6691 28.4516ZM18.2255 27.6939C18.2962 26.4936 17.7145 25.3635 16.6468 24.7954C17.2587 25.6472 17.7165 26.5749 17.9698 27.6013C17.9709 27.6055 17.9667 27.6066 17.9678 27.6105C18.053 27.6356 18.1392 27.6649 18.2255 27.6939ZM17.8684 28.1994C17.7371 28.1649 17.6075 28.121 17.4752 28.0824C17.4876 28.0966 17.483 28.1282 17.4585 28.1348C16.6461 28.4703 15.8165 28.7578 14.9814 29.0253C16.016 29.3713 17.1431 29.039 17.8684 28.1994ZM17.6862 27.3895C17.4118 26.4955 17.0392 25.6581 16.5246 24.876C16.5247 25.8525 16.9258 26.7475 17.6862 27.3895ZM17.432 28.0678C17.3129 28.03 17.196 28.0004 17.0808 27.9613C16.2125 27.9585 15.407 28.2702 14.7698 28.9511C14.775 28.9541 14.7751 28.9541 14.78 28.957C15.6511 28.628 16.5366 28.3208 17.432 28.0678ZM9.08843 1.64672C9.07295 1.57231 9.07294 1.5244 9.0695 1.49494C8.15876 2.17917 7.4807 3.09748 7.01708 4.133C7.59729 3.9558 8.09089 3.66642 8.49127 3.17577C8.73237 2.87156 8.91519 2.51304 9.00988 2.13442C9.04629 1.99373 9.11216 1.78413 9.08843 1.64672ZM8.84203 1.4425C8.28894 1.41211 7.60504 1.98318 7.29287 2.36326C6.85959 2.89337 6.64484 3.55687 6.71369 4.23603C6.7279 4.22358 6.74595 4.20984 6.77039 4.20329C6.82316 4.18915 6.87203 4.17605 6.9209 4.16296C7.21921 3.03242 7.90223 2.11697 8.84203 1.4425ZM14.7158 26.2762C15.6964 25.364 14.6543 24.1917 13.907 23.3065C14.1915 24.2547 14.4506 25.2052 14.7014 26.158C14.7134 26.2027 14.6944 26.2295 14.6642 26.2466C14.6796 26.2553 14.7003 26.2672 14.7158 26.2762ZM13.7338 23.1C13.714 23.0747 13.6941 23.0496 13.6743 23.0243C13.317 24.0659 13.6161 25.1497 14.3964 25.9302C14.4504 25.9854 14.4199 26.0504 14.3651 26.0737C14.4166 26.1034 14.4683 26.1333 14.5197 26.163C14.2434 25.1471 13.9737 24.1253 13.7338 23.1ZM14.1423 26.6084C14.1371 26.6054 14.1321 26.6025 14.1269 26.5995C14.0734 26.6442 13.9993 26.6599 13.9349 26.5986C13.9286 26.5916 13.9236 26.5885 13.9131 26.5827C13.9054 26.6195 13.8795 26.6527 13.8305 26.6485C12.7408 26.6004 11.6786 26.654 10.6053 26.8457C11.8135 27.2063 13.1369 27.4445 14.1423 26.6084ZM8.49923 5.59694C7.52562 5.57448 6.57519 6.1604 6.26752 7.1104C6.25905 7.14331 6.23151 7.15488 6.20492 7.15336C6.19726 7.19024 6.18879 7.22315 6.17722 7.26108C6.98864 6.76032 7.75864 6.20075 8.49923 5.59694ZM11.6917 24.035C12.6439 23.2611 12.2371 22.0361 11.8105 21.0781C11.8024 21.0803 11.7994 21.0855 11.7924 21.0916L11.7976 21.0946C11.8564 22.0292 11.7366 22.9985 11.69 23.9307C11.6913 23.9521 11.6784 23.9686 11.6684 23.98C11.6736 24.0005 11.6833 24.02 11.6917 24.035ZM7.82167 8.72971C6.93502 8.90182 6.206 9.40224 5.79212 10.1846C5.78335 10.3307 5.77855 10.476 5.77394 10.621C6.49162 10.176 7.07206 9.59309 7.54837 8.8815C7.6112 8.79056 7.75556 8.8739 7.698 8.96789C7.23391 9.74167 6.55766 10.3413 5.76914 10.7663C5.76674 10.8062 5.76539 10.85 5.763 10.89C6.86619 10.7119 7.74924 9.89111 7.82167 8.72971ZM11.5378 23.6405C11.5439 22.8498 11.5261 22.035 11.6173 21.2522C11.0263 21.8769 11.2446 22.8384 11.5378 23.6405ZM9.28233 21.6162C10.2014 20.9298 10.6537 19.771 10.1684 18.6761C10.1138 18.7169 10.0595 18.7576 10.0089 18.7974C10.0429 18.81 10.0678 18.8382 10.0543 18.8855C9.81813 19.7771 9.50806 20.6536 9.21429 21.5255C9.23936 21.5536 9.25743 21.5878 9.28233 21.6162ZM6.20181 7.33724C7.31605 7.75357 7.98493 6.78534 8.4008 5.88046C7.72496 6.44938 6.99576 6.93255 6.20987 7.33508C6.20597 7.33613 6.20181 7.33724 6.20181 7.33724ZM13.7648 26.4524C12.882 25.7604 11.8104 26.1217 10.8886 26.6347C11.8407 26.4623 12.8017 26.3879 13.7648 26.4524ZM11.4323 24.645C11.4209 24.6349 11.4094 24.6249 11.398 24.6149C11.3882 24.6437 11.3683 24.6663 11.3334 24.667C10.2741 24.7154 9.21144 24.7517 8.15366 24.7738C9.14814 25.4097 10.4703 25.3822 11.4323 24.645ZM11.2798 24.5159C11.2403 24.4827 11.2011 24.4498 11.1658 24.4158C10.0485 24.1178 8.98216 24.1071 7.93384 24.6365C7.96067 24.6555 7.99054 24.6693 8.01736 24.6883C9.10204 24.6199 10.1889 24.5597 11.2798 24.5159ZM7.64131 12.0909C7.72267 12.0691 7.82432 12.1552 7.7654 12.2451C7.23001 13.0773 6.68918 13.9067 6.12802 14.7238C6.13041 14.7494 6.13696 14.7738 6.1396 14.7993C7.34426 14.4634 8.11771 13.2013 7.79661 11.9707C7.7388 11.9993 7.68124 12.0278 7.62343 12.0564C6.82878 12.4741 6.29976 13.1522 5.99489 13.966C6.02364 14.1545 6.06046 14.3407 6.09424 14.5323C6.57597 13.7276 7.07734 12.9307 7.57977 12.1378C7.59461 12.1121 7.61688 12.0974 7.64131 12.0909ZM8.63656 15.4641C8.62698 15.3795 8.61851 15.299 8.61004 15.2186C7.84916 15.8933 7.28718 16.7239 7.0235 17.6925C7.09393 17.8742 7.17371 18.0576 7.25636 18.2361C7.71326 17.3377 8.1034 16.4356 8.39758 15.4674C8.43733 15.3392 8.60524 15.3639 8.63248 15.4655C8.63791 15.4858 8.63919 15.5072 8.63248 15.531C8.36617 16.522 7.92196 17.4999 7.31304 18.3343C8.04194 18.2565 8.52496 17.6345 8.66641 16.9428C8.77244 16.4433 8.68968 15.9556 8.63656 15.4641ZM5.9805 5.89265C5.85782 5.22372 5.51919 4.64303 4.95308 4.25423C5.36336 5.15117 5.58377 6.03823 5.57176 7.03523C5.56785 7.10174 5.48817 7.11419 5.45591 7.07491C5.44849 7.06381 5.44131 7.05264 5.44089 7.03546C5.40268 6.09539 5.21069 5.13551 4.83155 4.2737C4.43637 5.25579 4.68985 6.34741 5.43171 7.09894C5.48473 7.1502 5.53768 7.20122 5.5946 7.25143C5.61121 7.26453 5.61664 7.28481 5.6168 7.30204C5.71723 6.83049 5.83904 6.35765 5.9805 5.89265ZM9.11616 21.386C9.35844 20.5497 9.59849 19.705 9.89332 18.8849C9.27687 19.3989 8.89542 20.1068 8.75988 20.9017C8.87391 21.0673 8.99488 21.2266 9.11616 21.386ZM5.21681 10.9009C5.22517 10.4933 5.24599 10.0824 5.27592 9.67318C4.95212 9.06679 4.45802 8.58904 3.83148 8.31672C4.03936 9.32027 4.53936 10.08 5.20091 10.8573C5.21336 10.8715 5.21353 10.8887 5.21681 10.9009ZM3.72241 8.33285C3.64086 9.31366 3.77597 11.3307 5.03101 10.9552C4.25705 10.3125 3.84613 9.31548 3.72241 8.33285ZM6.64878 18.5555C6.65293 18.5543 6.65796 18.5575 6.66626 18.5552C6.65995 18.5483 6.65077 18.5463 6.64335 18.5352C6.15474 17.5414 5.13607 16.912 4.03463 17.1288C4.08629 17.2239 4.13907 17.3231 4.19991 17.4202C4.98766 17.8064 5.78365 18.1902 6.55065 18.6124C6.58403 18.5904 6.61565 18.5774 6.64878 18.5555ZM5.59801 14.8616C5.56574 14.709 5.53658 14.5513 5.50847 14.3975C5.1128 13.5228 4.3569 12.9144 3.39422 12.8193C3.39533 12.8235 3.39638 12.8274 3.39334 12.8327C4.13433 13.4666 4.97023 14.0971 5.57795 14.8366C5.58427 14.8436 5.58234 14.853 5.5845 14.8611C5.58883 14.8596 5.59689 14.8575 5.59801 14.8616ZM4.35731 17.6656C4.83896 18.3734 5.53307 19.0113 6.34906 18.7054C5.67651 18.3758 5.01483 18.0212 4.35731 17.6656ZM5.4571 14.8557C4.72155 14.3554 4.06057 13.678 3.40854 13.0507C3.52021 14.0538 4.42001 14.8895 5.4571 14.8557Z" fill="url(#paint0_linear_7310_11764)"/>
<path d="M16.6465 24.7959C17.7143 25.3643 18.2959 26.4942 18.2252 27.6944C18.1388 27.6652 18.0527 27.6359 17.9674 27.6108C17.9663 27.6066 17.9704 27.6055 17.9694 27.6016C17.7162 26.5754 17.2583 25.6475 16.6465 24.7959Z" fill="#DEEAFB"/>
<path d="M17.4748 28.082C17.6072 28.1206 17.7368 28.1645 17.8681 28.199C17.1427 29.0386 16.0157 29.3709 14.9813 29.0248C15.8163 28.7576 16.646 28.4699 17.4585 28.1343C17.4829 28.1278 17.4875 28.0962 17.4748 28.082Z" fill="#DEEAFB"/>
<path d="M16.5247 24.8759C17.0393 25.6577 17.4119 26.4951 17.6863 27.3894C16.9259 26.7474 16.5248 25.8524 16.5247 24.8759Z" fill="#DEEAFB"/>
<path d="M17.0809 27.962C17.196 28.0008 17.3129 28.0305 17.432 28.0685C16.5364 28.3216 15.6511 28.6285 14.7803 28.9576C14.7751 28.9546 14.7751 28.9546 14.7701 28.9517C15.4068 28.271 16.2126 27.9592 17.0809 27.962Z" fill="#DEEAFB"/>
<path d="M9.06907 1.49475C9.07258 1.52445 9.07234 1.57243 9.08801 1.64653C9.11173 1.78394 9.04586 1.99354 9.00938 2.13398C8.91463 2.51237 8.73181 2.87088 8.49077 3.17533C8.09046 3.66623 7.5968 3.95536 7.01659 4.13256C7.48034 3.09754 8.1584 2.17922 9.06907 1.49475Z" fill="#DEEAFB"/>
<path d="M7.29254 2.36381C7.6047 1.98374 8.28861 1.41266 8.84169 1.44305C7.9022 2.1177 7.21888 3.03297 6.92031 4.16358C6.87145 4.17667 6.82283 4.1897 6.76981 4.20391C6.74538 4.21045 6.72726 4.22395 6.71312 4.23664C6.64475 3.55735 6.85926 2.89392 7.29254 2.36381Z" fill="#DEEAFB"/>
<path d="M13.9068 23.3069C14.6541 24.1921 15.6962 25.3643 14.7156 26.2765C14.7001 26.2676 14.6796 26.2558 14.6641 26.2468C14.6945 26.2301 14.7134 26.203 14.7014 26.1583C14.4503 25.2056 14.1912 24.2551 13.9068 23.3069Z" fill="#DEEAFB"/>
<path d="M13.6742 23.0242C13.6941 23.0495 13.7139 23.0746 13.7338 23.0999C13.9737 24.1255 14.2431 25.1474 14.5197 26.1629C14.4682 26.1329 14.4165 26.1033 14.3651 26.0736C14.4198 26.0503 14.4504 25.9853 14.3963 25.9301C13.616 25.1496 13.3167 24.0658 13.6742 23.0242Z" fill="#DEEAFB"/>
<path d="M14.1266 26.5994C14.1318 26.6025 14.1368 26.6053 14.142 26.6084C13.1369 27.4444 11.8132 27.2062 10.605 26.8457C11.6783 26.6539 12.7405 26.6003 13.8302 26.6485C13.8792 26.6526 13.9052 26.6197 13.9128 26.5826C13.923 26.5885 13.9283 26.5916 13.9346 26.5985C13.9987 26.6599 14.0731 26.6444 14.1266 26.5994Z" fill="#DEEAFB"/>
<path d="M6.26712 7.1101C6.5748 6.1601 7.52523 5.57417 8.49884 5.59663C7.75824 6.20044 6.98843 6.75971 6.17683 7.26077C6.1884 7.22284 6.19711 7.18987 6.20453 7.15306C6.23088 7.15464 6.25835 7.14282 6.26712 7.1101Z" fill="#DEEAFB"/>
<path d="M11.8102 21.0777C12.2369 22.0357 12.6436 23.2607 11.6915 24.0346C11.683 24.0195 11.6736 24.0001 11.6682 23.9798C11.6782 23.9684 11.6913 23.9518 11.6898 23.9305C11.7364 22.9983 11.8559 22.0291 11.7974 21.0945L11.7922 21.0914C11.7991 21.0851 11.8019 21.0799 11.8102 21.0777Z" fill="#DEEAFB"/>
<path d="M5.79209 10.1845C6.20573 9.40224 6.93475 8.90182 7.82164 8.72964C7.74921 9.89105 6.86617 10.7119 5.76322 10.8898C5.76561 10.8499 5.76696 10.8061 5.76936 10.7662C6.55787 10.3412 7.23412 9.74154 7.69821 8.96776C7.75577 8.87377 7.61142 8.79043 7.54858 8.88137C7.07235 9.5932 6.49183 10.1758 5.77415 10.6209C5.77846 10.4757 5.78332 10.3306 5.79209 10.1845Z" fill="#DEEAFB"/>
<path d="M11.6169 21.2516C11.5258 22.0344 11.5438 22.8492 11.5375 23.6399C11.2444 22.838 11.026 21.8766 11.6169 21.2516Z" fill="#DEEAFB"/>
<path d="M10.1682 18.6761C10.6533 19.7712 10.2009 20.9296 9.28215 21.6163C9.25707 21.5882 9.23919 21.5537 9.21436 21.5255C9.50807 20.6533 9.81821 19.7771 10.0543 18.8855C10.0679 18.8384 10.0428 18.81 10.009 18.7974C10.0591 18.7577 10.1137 18.7169 10.1682 18.6761Z" fill="#DEEAFB"/>
<path d="M8.40074 5.88099C7.98487 6.78587 7.31599 7.7541 6.20175 7.33777C6.20175 7.33777 6.2059 7.33665 6.20981 7.33561C6.99577 6.93332 7.72496 6.45015 8.40074 5.88099Z" fill="#DEEAFB"/>
<path d="M10.8886 26.6354C11.8104 26.1226 12.8818 25.7614 13.7648 26.4532C12.8016 26.3886 11.8406 26.4631 10.8886 26.6354Z" fill="#DEEAFB"/>
<path d="M11.3979 24.6146C11.4093 24.6247 11.4208 24.6347 11.4322 24.6447C10.4702 25.382 9.14805 25.4094 8.15381 24.7734C9.21165 24.7516 10.2743 24.7154 11.3336 24.6667C11.3681 24.6664 11.3881 24.6434 11.3979 24.6146Z" fill="#DEEAFB"/>
<path d="M11.1656 24.4162C11.201 24.4504 11.2402 24.4834 11.2797 24.5163C10.1884 24.5602 9.10185 24.6203 8.01718 24.6886C7.99035 24.6697 7.96048 24.6559 7.93366 24.6369C8.98198 24.1075 10.0485 24.1182 11.1656 24.4162Z" fill="#DEEAFB"/>
<path d="M7.76539 12.2449C7.82407 12.1551 7.72267 12.0689 7.64131 12.0907L7.62343 12.0562C7.68124 12.0276 7.7388 11.9991 7.79661 11.9705C8.11764 13.2009 7.34426 14.4631 6.13959 14.799C6.1372 14.7735 6.13065 14.7491 6.12801 14.7236C6.68911 13.9063 7.22976 13.0771 7.76539 12.2449Z" fill="#DEEAFB"/>
<path d="M8.60997 15.2189C8.61844 15.2994 8.62691 15.3799 8.6365 15.4645L8.63235 15.4656C8.60511 15.364 8.43713 15.3391 8.39745 15.4675C8.10327 16.4356 7.71288 17.3379 7.25623 18.2362C7.17358 18.0577 7.0938 17.8743 7.02337 17.6926C7.28711 16.7243 7.84909 15.8936 8.60997 15.2189Z" fill="#DEEAFB"/>
<path d="M8.63207 15.4653L8.63623 15.4642C8.68935 15.9557 8.77217 16.4436 8.66625 16.9425C8.52481 17.6343 8.04178 18.2563 7.31289 18.334C7.92174 17.4995 8.36602 16.5218 8.63232 15.5307C8.63904 15.5069 8.63751 15.4856 8.63207 15.4653Z" fill="#DEEAFB"/>
<path d="M4.95284 4.25436C5.51894 4.64316 5.85782 5.22378 5.98025 5.89278C5.8388 6.35778 5.71729 6.8308 5.61687 7.30235C5.61664 7.28487 5.61121 7.26459 5.59467 7.25174C5.5375 7.20159 5.4848 7.15051 5.43178 7.09925L5.45598 7.07522C5.48824 7.1145 5.56761 7.10187 5.57183 7.03553C5.58352 6.03836 5.36318 5.15154 4.95284 4.25436Z" fill="#DEEAFB"/>
<path d="M7.62287 12.0573L7.64075 12.0918C7.61632 12.0984 7.59405 12.113 7.57927 12.1389C7.07684 12.9319 6.57547 13.7287 6.09374 14.5334C6.05997 14.3419 6.02314 14.1556 5.99439 13.9672C6.29919 13.1531 6.82828 12.4753 7.62287 12.0573Z" fill="#DEEAFB"/>
<path d="M9.89302 18.8852C9.59844 19.7052 9.35838 20.5499 9.11586 21.3863C8.99464 21.2271 8.8736 21.0676 8.75934 20.9021C8.89536 20.107 9.27681 19.3991 9.89302 18.8852Z" fill="#DEEAFB"/>
<path d="M4.83127 4.27353C5.21041 5.13534 5.40216 6.09528 5.44062 7.03529C5.44085 7.05277 5.44828 7.06387 5.45564 7.07473L5.43144 7.09876C4.68958 6.34723 4.43634 5.25555 4.83127 4.27353Z" fill="#DEEAFB"/>
<path d="M8.57872 21.626C8.54839 21.6428 8.51701 21.6556 8.48643 21.6725C7.5964 21.4097 6.6762 21.2289 5.77028 21.0359C5.71375 21.0205 5.68109 21.0774 5.69307 21.1221C5.6597 21.0787 5.61913 21.0416 5.58887 20.9932C6.65126 20.7127 7.88204 20.6531 8.57872 21.626Z" fill="#DEEAFB"/>
<path d="M5.27583 9.67375C5.2459 10.0829 5.22532 10.4938 5.21672 10.9015C5.21344 10.8893 5.21321 10.8718 5.20058 10.8579C4.53897 10.0804 4.03902 9.32089 3.83114 8.31735C4.45793 8.5896 4.9521 9.06759 5.27583 9.67375Z" fill="#DEEAFB"/>
<path d="M8.23719 21.8004C7.35773 22.1625 6.30762 21.9034 5.71777 21.1504C5.72304 21.1534 5.72799 21.1563 5.73326 21.1593C6.5614 21.3865 7.39666 21.6247 8.23719 21.8004Z" fill="#DEEAFB"/>
<path d="M5.03105 10.9551C3.776 11.3307 3.6409 9.31359 3.72244 8.33279C3.84616 9.31542 4.25709 10.3125 5.03105 10.9551Z" fill="#DEEAFB"/>
<path d="M6.66582 18.5553C6.65775 18.5575 6.65248 18.5545 6.64833 18.5556C6.61495 18.5776 6.58358 18.5905 6.5502 18.6125C5.7832 18.1903 4.98714 17.8063 4.19946 17.4203C4.13862 17.3232 4.08585 17.224 4.03418 17.1289C5.13569 16.9123 6.15429 17.5415 6.6429 18.5353C6.65032 18.5464 6.6595 18.5484 6.66582 18.5553Z" fill="#DEEAFB"/>
<path d="M5.50837 14.3977C5.53648 14.5514 5.56571 14.7094 5.59791 14.8618C5.59679 14.8576 5.58873 14.8598 5.58458 14.8609C5.58242 14.8529 5.58441 14.8437 5.57803 14.8365C4.97007 14.097 4.13422 13.4668 3.39341 12.8325C3.39645 12.8273 3.3954 12.8234 3.39429 12.8192C4.35686 12.9148 5.11269 13.523 5.50837 14.3977Z" fill="#DEEAFB"/>
<path d="M6.34917 18.7059C5.53319 19.0117 4.83907 18.3739 4.35742 17.666C5.01488 18.0214 5.67656 18.376 6.34917 18.7059Z" fill="#DEEAFB"/>
<path d="M3.40832 13.051C4.06036 13.6784 4.72133 14.3557 5.45688 14.856C4.41979 14.8898 3.51999 14.0541 3.40832 13.051Z" fill="#DEEAFB"/>
<defs>
<linearGradient id="paint0_linear_7310_11764" x1="-12.8342" y1="-56.0546" x2="1.81656" y2="-59.2117" gradientUnits="userSpaceOnUse">
<stop stop-color="#5048E5"/>
<stop offset="1" stop-color="#8B63E9"/>
</linearGradient>
</defs>
</svg>
