<svg width="184" height="49" viewBox="0 0 184 49" fill="none" xmlns="http://www.w3.org/2000/svg">
<g clip-path="url(#clip0_716_689)">
<path d="M21.0576 12.5854C21.0576 9.61202 24.6737 8.14655 26.7437 10.281L36.3772 20.2143C37.6334 21.5096 38.3359 23.2431 38.3359 25.0475V35.8892C38.3359 38.8626 34.7199 40.3281 32.6498 38.1936L23.0163 28.2603C21.7601 26.965 21.0576 25.2315 21.0576 23.4271V12.5854Z" fill="#D2B5FF"/>
<path d="M10.3496 12.1675C10.3496 9.19405 13.9657 7.72859 16.0357 9.86307L25.3877 19.5061C26.8245 20.9876 27.6279 22.9702 27.6279 25.0339V35.4712C27.6279 38.4446 24.0119 39.9101 21.9418 37.7756L12.3083 27.8423C11.0521 26.547 10.3496 24.8135 10.3496 23.0091V12.1675Z" fill="#8761E9"/>
<path d="M0 12.5854C0 9.61202 3.61605 8.14655 5.68611 10.281L15.3196 20.2143C16.5758 21.5096 17.2783 23.2431 17.2783 25.0475V35.8892C17.2783 38.8626 13.6623 40.3281 11.5922 38.1936L1.95872 28.2603C0.702526 26.965 0 25.2315 0 23.4271V12.5854Z" fill="#534AE5"/>
<path d="M57.7279 32.3163C56.5119 32.3163 55.4239 32.1083 54.4639 31.6923C53.5199 31.2763 52.7759 30.6683 52.2319 29.8683C51.6879 29.0683 51.3999 28.1003 51.3679 26.9643H54.7999C54.8159 27.4603 54.9439 27.9083 55.1839 28.3083C55.4239 28.7083 55.7599 29.0283 56.1919 29.2683C56.6239 29.4923 57.1359 29.6043 57.7279 29.6043C58.2239 29.6043 58.6559 29.5243 59.0239 29.3643C59.4079 29.1883 59.7039 28.9483 59.9119 28.6443C60.1359 28.3403 60.2479 27.9803 60.2479 27.5643C60.2479 27.0683 60.1199 26.6603 59.8639 26.3403C59.6239 26.0043 59.2959 25.7323 58.8799 25.5243C58.4639 25.3003 57.9839 25.1003 57.4399 24.9243C56.9119 24.7323 56.3519 24.5403 55.7599 24.3483C54.4639 23.9003 53.4719 23.3243 52.7839 22.6203C52.0959 21.9003 51.7519 20.9483 51.7519 19.7643C51.7519 18.7563 51.9919 17.8923 52.4719 17.1723C52.9519 16.4523 53.6239 15.9003 54.4879 15.5163C55.3519 15.1323 56.3359 14.9403 57.4399 14.9403C58.5759 14.9403 59.5759 15.1403 60.4399 15.5403C61.3039 15.9243 61.9839 16.4843 62.4799 17.2203C62.9759 17.9563 63.2399 18.8203 63.2719 19.8123H59.7919C59.7759 19.4443 59.6719 19.1003 59.4799 18.7803C59.2879 18.4443 59.0159 18.1803 58.6639 17.9883C58.3119 17.7803 57.8879 17.6763 57.3919 17.6763C56.9759 17.6603 56.5999 17.7243 56.2639 17.8683C55.9279 18.0123 55.6559 18.2283 55.4479 18.5163C55.2559 18.7883 55.1599 19.1323 55.1599 19.5483C55.1599 19.9483 55.2559 20.2843 55.4479 20.5563C55.6399 20.8283 55.9119 21.0683 56.2639 21.2763C56.6159 21.4683 57.0319 21.6523 57.5119 21.8283C57.9919 21.9883 58.5119 22.1563 59.0719 22.3323C59.9199 22.6203 60.6879 22.9643 61.3759 23.3643C62.0799 23.7483 62.6399 24.2523 63.0559 24.8763C63.4719 25.5003 63.6799 26.3243 63.6799 27.3483C63.6799 28.2283 63.4479 29.0443 62.9839 29.7963C62.5359 30.5483 61.8719 31.1563 60.9919 31.6203C60.1119 32.0843 59.0239 32.3163 57.7279 32.3163ZM72.1666 32.3163C70.9506 32.3163 69.8706 32.0523 68.9266 31.5243C67.9826 30.9803 67.2386 30.2443 66.6946 29.3163C66.1666 28.3723 65.9026 27.2923 65.9026 26.0763C65.9026 24.8603 66.1666 23.7883 66.6946 22.8603C67.2386 21.9163 67.9826 21.1803 68.9266 20.6523C69.8706 20.1083 70.9506 19.8363 72.1666 19.8363C73.7026 19.8363 74.9986 20.2363 76.0546 21.0363C77.1106 21.8363 77.7746 22.9403 78.0466 24.3483H74.6386C74.4946 23.8043 74.1986 23.3803 73.7506 23.0763C73.3026 22.7563 72.7666 22.5963 72.1426 22.5963C71.5986 22.5963 71.1026 22.7403 70.6546 23.0283C70.2066 23.3003 69.8546 23.7003 69.5986 24.2283C69.3426 24.7403 69.2146 25.3563 69.2146 26.0763C69.2146 26.6203 69.2866 27.1083 69.4306 27.5403C69.5906 27.9563 69.7986 28.3163 70.0546 28.6203C70.3266 28.9243 70.6386 29.1563 70.9906 29.3163C71.3426 29.4763 71.7266 29.5563 72.1426 29.5563C72.5586 29.5563 72.9346 29.4923 73.2706 29.3643C73.6066 29.2203 73.8946 29.0203 74.1346 28.7643C74.3746 28.4923 74.5426 28.1723 74.6386 27.8043H78.0466C77.7746 29.1803 77.1106 30.2763 76.0546 31.0923C74.9986 31.9083 73.7026 32.3163 72.1666 32.3163ZM84.9218 32.3163C83.9138 32.3163 83.0738 32.1563 82.4018 31.8363C81.7458 31.5163 81.2578 31.0843 80.9378 30.5403C80.6178 29.9963 80.4578 29.3963 80.4578 28.7403C80.4578 28.0043 80.6418 27.3643 81.0098 26.8203C81.3938 26.2603 81.9698 25.8203 82.7378 25.5003C83.5058 25.1803 84.4738 25.0203 85.6418 25.0203H88.6418C88.6418 24.4443 88.5538 23.9723 88.3778 23.6043C88.2178 23.2203 87.9618 22.9403 87.6098 22.7643C87.2738 22.5723 86.8418 22.4763 86.3138 22.4763C85.6898 22.4763 85.1538 22.6123 84.7058 22.8843C84.2738 23.1563 84.0018 23.5723 83.8898 24.1323H80.7458C80.8418 23.2523 81.1378 22.4923 81.6338 21.8523C82.1298 21.2123 82.7858 20.7163 83.6018 20.3643C84.4178 20.0123 85.3218 19.8363 86.3138 19.8363C87.4498 19.8363 88.4338 20.0283 89.2658 20.4123C90.0978 20.7803 90.7378 21.3323 91.1858 22.0683C91.6498 22.7883 91.8818 23.6683 91.8818 24.7083V32.0283H89.1458L88.7858 30.1803C88.6258 30.5003 88.4178 30.7883 88.1618 31.0443C87.9218 31.3003 87.6418 31.5243 87.3218 31.7163C87.0018 31.9083 86.6418 32.0523 86.2418 32.1483C85.8418 32.2603 85.4018 32.3163 84.9218 32.3163ZM85.6898 29.8203C86.1218 29.8203 86.4978 29.7483 86.8178 29.6043C87.1538 29.4443 87.4338 29.2363 87.6578 28.9803C87.8978 28.7243 88.0818 28.4283 88.2098 28.0923C88.3538 27.7563 88.4498 27.3963 88.4978 27.0123H86.0018C85.5058 27.0123 85.0978 27.0763 84.7778 27.2043C84.4738 27.3163 84.2498 27.4843 84.1058 27.7083C83.9618 27.9163 83.8898 28.1643 83.8898 28.4523C83.8898 28.7403 83.9618 28.9883 84.1058 29.1963C84.2498 29.4043 84.4578 29.5643 84.7298 29.6763C85.0018 29.7723 85.3218 29.8203 85.6898 29.8203ZM94.7866 32.0283V14.7483H98.0266V32.0283H94.7866ZM106.97 32.3163C105.754 32.3163 104.674 32.0603 103.73 31.5483C102.802 31.0363 102.074 30.3163 101.546 29.3883C101.018 28.4603 100.754 27.3963 100.754 26.1963C100.754 24.9483 101.01 23.8523 101.522 22.9083C102.05 21.9483 102.778 21.1963 103.706 20.6523C104.65 20.1083 105.746 19.8363 106.994 19.8363C108.178 19.8363 109.218 20.0923 110.114 20.6043C111.026 21.1163 111.73 21.8203 112.226 22.7163C112.738 23.5963 112.994 24.5963 112.994 25.7163C112.994 25.8763 112.994 26.0603 112.994 26.2683C112.994 26.4603 112.978 26.6603 112.946 26.8683H103.082V24.8763H109.706C109.658 24.1563 109.378 23.5723 108.866 23.1243C108.37 22.6763 107.746 22.4523 106.994 22.4523C106.434 22.4523 105.922 22.5803 105.458 22.8363C104.994 23.0763 104.626 23.4443 104.354 23.9403C104.082 24.4363 103.946 25.0603 103.946 25.8123V26.5083C103.946 27.1483 104.074 27.7083 104.33 28.1883C104.586 28.6683 104.938 29.0363 105.386 29.2923C105.85 29.5483 106.37 29.6763 106.946 29.6763C107.538 29.6763 108.034 29.5483 108.434 29.2923C108.834 29.0203 109.138 28.6763 109.346 28.2603H112.658C112.418 29.0123 112.034 29.7003 111.506 30.3243C110.978 30.9323 110.33 31.4203 109.562 31.7883C108.794 32.1403 107.93 32.3163 106.97 32.3163ZM115.624 32.0283V15.2283H121.936C123.296 15.2283 124.416 15.4603 125.296 15.9243C126.192 16.3723 126.856 16.9883 127.288 17.7723C127.736 18.5563 127.96 19.4443 127.96 20.4363C127.96 21.3483 127.744 22.1963 127.312 22.9803C126.896 23.7643 126.24 24.4043 125.344 24.9003C124.464 25.3803 123.328 25.6203 121.936 25.6203H118.864V32.0283H115.624ZM118.864 23.0043H121.744C122.768 23.0043 123.504 22.7723 123.952 22.3083C124.416 21.8443 124.648 21.2203 124.648 20.4363C124.648 19.6203 124.416 18.9883 123.952 18.5403C123.504 18.0923 122.768 17.8683 121.744 17.8683H118.864V23.0043ZM133.555 32.3163C132.547 32.3163 131.707 32.1563 131.035 31.8363C130.379 31.5163 129.891 31.0843 129.571 30.5403C129.251 29.9963 129.091 29.3963 129.091 28.7403C129.091 28.0043 129.275 27.3643 129.643 26.8203C130.027 26.2603 130.603 25.8203 131.371 25.5003C132.139 25.1803 133.107 25.0203 134.275 25.0203H137.275C137.275 24.4443 137.187 23.9723 137.011 23.6043C136.851 23.2203 136.595 22.9403 136.243 22.7643C135.907 22.5723 135.475 22.4763 134.947 22.4763C134.323 22.4763 133.787 22.6123 133.339 22.8843C132.907 23.1563 132.635 23.5723 132.523 24.1323H129.379C129.475 23.2523 129.771 22.4923 130.267 21.8523C130.763 21.2123 131.419 20.7163 132.235 20.3643C133.051 20.0123 133.955 19.8363 134.947 19.8363C136.083 19.8363 137.067 20.0283 137.899 20.4123C138.731 20.7803 139.371 21.3323 139.819 22.0683C140.283 22.7883 140.515 23.6683 140.515 24.7083V32.0283H137.779L137.419 30.1803C137.259 30.5003 137.051 30.7883 136.795 31.0443C136.555 31.3003 136.275 31.5243 135.955 31.7163C135.635 31.9083 135.275 32.0523 134.875 32.1483C134.475 32.2603 134.035 32.3163 133.555 32.3163ZM134.323 29.8203C134.755 29.8203 135.131 29.7483 135.451 29.6043C135.787 29.4443 136.067 29.2363 136.291 28.9803C136.531 28.7243 136.715 28.4283 136.843 28.0923C136.987 27.7563 137.083 27.3963 137.131 27.0123H134.635C134.139 27.0123 133.731 27.0763 133.411 27.2043C133.107 27.3163 132.883 27.4843 132.739 27.7083C132.595 27.9163 132.523 28.1643 132.523 28.4523C132.523 28.7403 132.595 28.9883 132.739 29.1963C132.883 29.4043 133.091 29.5643 133.363 29.6763C133.635 29.7723 133.955 29.8203 134.323 29.8203ZM148.603 37.5963C147.467 37.5963 146.467 37.4523 145.603 37.1643C144.755 36.8923 144.099 36.4683 143.635 35.8923C143.171 35.3323 142.939 34.6363 142.939 33.8043C142.939 33.2443 143.083 32.7163 143.371 32.2203C143.659 31.7403 144.075 31.3003 144.619 30.9003C145.179 30.4843 145.867 30.1323 146.683 29.8443L147.883 31.4523C147.163 31.6923 146.643 31.9883 146.323 32.3403C146.003 32.7083 145.843 33.0843 145.843 33.4683C145.843 33.8523 145.963 34.1643 146.203 34.4043C146.459 34.6603 146.795 34.8443 147.211 34.9563C147.627 35.0843 148.091 35.1483 148.603 35.1483C149.099 35.1483 149.531 35.0843 149.899 34.9563C150.267 34.8283 150.555 34.6363 150.763 34.3803C150.987 34.1403 151.099 33.8603 151.099 33.5403C151.099 33.1083 150.947 32.7563 150.643 32.4843C150.339 32.2283 149.747 32.0683 148.867 32.0043C148.051 31.9403 147.331 31.8443 146.707 31.7163C146.083 31.5883 145.531 31.4443 145.051 31.2843C144.587 31.1243 144.187 30.9403 143.851 30.7323C143.515 30.5243 143.251 30.3163 143.059 30.1083V29.5563L145.627 26.7723L147.883 27.5163L144.907 30.5163L145.843 28.9323C146.003 29.0443 146.171 29.1483 146.347 29.2443C146.523 29.3243 146.731 29.3963 146.971 29.4603C147.227 29.5243 147.555 29.5883 147.955 29.6523C148.355 29.7003 148.867 29.7563 149.491 29.8203C150.547 29.9003 151.411 30.0923 152.083 30.3963C152.755 30.7003 153.251 31.1083 153.571 31.6203C153.891 32.1323 154.051 32.7483 154.051 33.4683C154.051 34.1723 153.859 34.8363 153.475 35.4603C153.091 36.1003 152.491 36.6123 151.675 36.9963C150.875 37.3963 149.851 37.5963 148.603 37.5963ZM148.627 28.5003C147.619 28.5003 146.747 28.3083 146.011 27.9243C145.291 27.5403 144.731 27.0203 144.331 26.3643C143.947 25.7083 143.755 24.9803 143.755 24.1803C143.755 23.3803 143.947 22.6523 144.331 21.9963C144.731 21.3403 145.291 20.8203 146.011 20.4363C146.747 20.0363 147.619 19.8363 148.627 19.8363C149.635 19.8363 150.499 20.0363 151.219 20.4363C151.955 20.8203 152.515 21.3403 152.899 21.9963C153.283 22.6523 153.475 23.3803 153.475 24.1803C153.475 24.9803 153.283 25.7083 152.899 26.3643C152.515 27.0203 151.955 27.5403 151.219 27.9243C150.499 28.3083 149.635 28.5003 148.627 28.5003ZM148.627 26.0283C149.235 26.0283 149.731 25.8763 150.115 25.5723C150.499 25.2523 150.691 24.7883 150.691 24.1803C150.691 23.5883 150.499 23.1403 150.115 22.8363C149.731 22.5163 149.235 22.3563 148.627 22.3563C148.019 22.3563 147.515 22.5163 147.115 22.8363C146.731 23.1403 146.539 23.5883 146.539 24.1803C146.539 24.7883 146.731 25.2523 147.115 25.5723C147.515 25.8763 148.019 26.0283 148.627 26.0283ZM150.571 22.4043L150.043 20.1243H155.035V22.0443L150.571 22.4043ZM163.08 32.3163C161.864 32.3163 160.784 32.0603 159.84 31.5483C158.912 31.0363 158.184 30.3163 157.656 29.3883C157.128 28.4603 156.864 27.3963 156.864 26.1963C156.864 24.9483 157.12 23.8523 157.632 22.9083C158.16 21.9483 158.888 21.1963 159.816 20.6523C160.76 20.1083 161.856 19.8363 163.104 19.8363C164.288 19.8363 165.328 20.0923 166.224 20.6043C167.136 21.1163 167.84 21.8203 168.336 22.7163C168.848 23.5963 169.104 24.5963 169.104 25.7163C169.104 25.8763 169.104 26.0603 169.104 26.2683C169.104 26.4603 169.088 26.6603 169.056 26.8683H159.192V24.8763H165.816C165.768 24.1563 165.488 23.5723 164.976 23.1243C164.48 22.6763 163.856 22.4523 163.104 22.4523C162.544 22.4523 162.032 22.5803 161.568 22.8363C161.104 23.0763 160.736 23.4443 160.464 23.9403C160.192 24.4363 160.056 25.0603 160.056 25.8123V26.5083C160.056 27.1483 160.184 27.7083 160.44 28.1883C160.696 28.6683 161.048 29.0363 161.496 29.2923C161.96 29.5483 162.48 29.6763 163.056 29.6763C163.648 29.6763 164.144 29.5483 164.544 29.2923C164.944 29.0203 165.248 28.6763 165.456 28.2603H168.768C168.528 29.0123 168.144 29.7003 167.616 30.3243C167.088 30.9323 166.44 31.4203 165.672 31.7883C164.904 32.1403 164.04 32.3163 163.08 32.3163ZM176.629 32.3163C175.573 32.3163 174.637 32.1403 173.821 31.7883C173.021 31.4363 172.373 30.9563 171.877 30.3483C171.397 29.7243 171.117 29.0203 171.037 28.2363H174.277C174.341 28.5243 174.477 28.7963 174.685 29.0523C174.893 29.2923 175.157 29.4843 175.477 29.6283C175.797 29.7723 176.165 29.8443 176.581 29.8443C177.029 29.8443 177.381 29.7883 177.637 29.6763C177.909 29.5483 178.109 29.3883 178.237 29.1963C178.381 28.9883 178.453 28.7803 178.453 28.5723C178.453 28.2523 178.349 28.0123 178.141 27.8523C177.949 27.6763 177.669 27.5323 177.301 27.4203C176.933 27.3083 176.493 27.1883 175.981 27.0603C175.453 26.9323 174.917 26.7883 174.373 26.6283C173.845 26.4683 173.357 26.2683 172.909 26.0283C172.461 25.7723 172.101 25.4523 171.829 25.0683C171.557 24.6843 171.421 24.1963 171.421 23.6043C171.421 22.9003 171.613 22.2683 171.997 21.7083C172.397 21.1323 172.957 20.6763 173.677 20.3403C174.413 20.0043 175.285 19.8363 176.293 19.8363C177.733 19.8363 178.877 20.1643 179.725 20.8203C180.589 21.4763 181.093 22.3803 181.237 23.5323H178.189C178.109 23.1483 177.901 22.8523 177.565 22.6443C177.245 22.4363 176.821 22.3323 176.293 22.3323C175.733 22.3323 175.301 22.4363 174.997 22.6443C174.709 22.8523 174.565 23.1083 174.565 23.4123C174.565 23.6363 174.669 23.8283 174.877 23.9883C175.085 24.1483 175.373 24.2923 175.741 24.4203C176.125 24.5323 176.565 24.6443 177.061 24.7563C177.925 24.9643 178.701 25.1883 179.389 25.4283C180.077 25.6523 180.629 25.9883 181.045 26.4363C181.477 26.8843 181.693 27.5403 181.693 28.4043C181.709 29.1403 181.509 29.8043 181.093 30.3963C180.677 30.9883 180.093 31.4603 179.341 31.8123C178.589 32.1483 177.685 32.3163 176.629 32.3163Z" fill="url(#paint0_linear_716_689)"/>
</g>
<defs>
<linearGradient id="paint0_linear_716_689" x1="79.9839" y1="-78.2799" x2="210.463" y2="-31.2806" gradientUnits="userSpaceOnUse">
<stop stop-color="#5048E5"/>
<stop offset="1" stop-color="#8B63E9"/>
</linearGradient>
<clipPath id="clip0_716_689">
<rect width="183.336" height="48.0567" fill="white"/>
</clipPath>
</defs>
</svg>
