<svg width="21" height="33" viewBox="0 0 21 33" fill="none" xmlns="http://www.w3.org/2000/svg">
<path d="M15.1427 20.9931C14.08 20.7128 12.8492 20.6533 12.1528 21.6262C12.1831 21.643 12.2145 21.6558 12.245 21.6727C13.1348 21.4099 14.0553 21.2292 14.9612 21.0362C15.0177 21.0207 15.0504 21.0776 15.0384 21.1223C15.0718 21.0786 15.1122 21.0415 15.1427 20.9931ZM14.9979 21.1591C14.1698 21.3863 13.3345 21.6244 12.4939 21.8004C13.3734 22.1625 14.4236 21.9032 15.0134 21.1502C15.0081 21.1532 15.0032 21.1561 14.9979 21.1591ZM2.23899 27.7795C2.03091 26.3112 2.934 24.8925 4.30886 24.3498C4.40659 24.3106 4.4897 24.4069 4.49753 24.4921C4.60462 25.6541 4.14156 26.7158 3.2579 27.4424C4.10346 27.1502 4.93608 26.8242 5.74891 26.4098C4.50029 25.2949 6.34731 23.5579 6.97748 22.6544C7.03394 22.5737 7.18164 22.5434 7.23067 22.6526C7.73579 23.7775 7.51639 25.1006 6.60859 25.9339C6.68604 25.8892 6.76319 25.8447 6.84063 25.7999C7.56531 25.3402 8.2551 24.8319 8.90888 24.2791C8.88861 24.2737 8.87335 24.2651 8.85523 24.2516C7.73163 23.3533 8.24648 21.8873 8.74379 20.7955C8.77453 20.7297 8.87488 20.7128 8.93573 20.7467C10.1673 21.4865 9.75385 22.9317 9.23754 23.9966C9.96023 23.3489 10.633 22.6443 11.2411 21.8876C10.0758 21.2093 9.74796 19.5214 10.3698 18.3716C10.4068 18.2988 10.5093 18.2739 10.58 18.319C11.4191 18.8317 12.0093 19.6872 12.1456 20.6434C12.223 20.5334 12.3015 20.4193 12.3761 20.3042C12.7234 19.7565 13.0269 19.1926 13.3042 18.613C11.6786 18.3997 11.5321 16.2462 11.9365 14.9816C11.957 14.9216 12.028 14.8841 12.0834 14.9207C12.9714 15.4943 13.5634 16.3764 13.8337 17.3688C14.1108 16.6279 14.343 15.8749 14.5173 15.1109C13.0976 14.748 12.2123 13.1069 12.6809 11.7158C12.7057 11.6397 12.7894 11.5705 12.8717 11.6056C13.7169 11.9323 14.4512 12.6086 14.816 13.443C14.9114 12.6971 14.9628 11.9522 14.9642 11.1984C13.6749 11.097 12.6286 9.84462 12.6347 8.56912C12.6349 8.50372 12.692 8.43627 12.7617 8.43738C13.6548 8.47192 14.4451 8.97121 14.9087 9.69718C14.8521 8.99751 14.7605 8.29737 14.6272 7.60775C13.1967 8.24443 12.3281 6.63873 11.9637 5.5253C11.946 5.47708 11.9809 5.41232 12.0311 5.40378C13.045 5.23082 13.9699 5.74889 14.4067 6.62455C14.2325 5.924 14.0245 5.23613 13.7703 4.55786C13.7545 4.51881 13.751 4.48304 13.7559 4.44926C12.3131 4.18913 11.301 2.72778 11.3976 1.29348C11.3997 1.21995 11.4488 1.16765 11.5234 1.1659C13.1958 1.07353 14.5491 2.66087 14.2429 4.29222C14.2363 4.31665 14.2198 4.3295 14.2074 4.34371C14.2274 4.36663 14.2464 4.39345 14.2591 4.42723C14.3728 4.7193 14.4799 5.01824 14.5781 5.31925C14.7717 4.67796 15.2383 4.14048 15.8657 3.81603C15.9379 3.77435 16.0417 3.79352 16.0854 3.87488C16.7042 5.09548 16.395 6.60817 15.254 7.40097C15.2053 7.43586 15.1558 7.4095 15.1279 7.36719C15.2604 7.99556 15.3559 8.63128 15.4207 9.26772C15.7377 8.5723 16.3344 8.08719 17.1032 7.85273C17.1843 7.82655 17.3038 7.88476 17.3187 7.97594C17.4748 8.95499 17.2734 12.0005 15.5136 11.1016C15.5151 11.9258 15.4615 12.7442 15.3518 13.5603C15.8363 12.875 16.6556 12.4364 17.5119 12.4129C17.6254 12.4127 17.6921 12.5047 17.7047 12.6042C17.879 14.0196 16.5972 15.289 15.1889 15.1122C15.142 15.1083 15.1097 15.0824 15.0918 15.0514C14.8673 16.068 14.5565 17.0657 14.1571 18.0355C14.6579 17.045 15.9315 16.5538 16.991 16.8463C17.0996 16.8798 17.1345 16.9937 17.087 17.0899C16.7602 17.7565 16.3638 18.4872 15.6666 18.8278C15.1146 19.0983 14.4834 19.095 13.9923 18.7149C13.9278 18.6627 13.9528 18.5692 14.0104 18.5498C13.9962 18.5373 13.9845 18.5166 13.9899 18.4964C14.0174 18.3772 14.0562 18.2656 14.1017 18.1602C13.7093 19.0881 13.2335 19.9851 12.6738 20.8378C12.6664 20.8489 12.6539 20.8631 12.6454 20.8781C13.4312 20.3693 14.5493 20.4597 15.4579 20.712C15.5759 20.7436 15.6115 20.8708 15.5656 20.9763C14.9434 22.3221 13.107 22.75 11.9446 21.8499C11.3733 22.5992 10.7115 23.3284 9.99209 24.0118C11.0557 23.6867 12.2512 23.8936 13.2165 24.4398C13.3185 24.4978 13.3356 24.6461 13.2525 24.7284C12.1164 25.8451 10.298 25.8635 9.12924 24.7917C8.72818 25.1333 8.31122 25.4532 7.88427 25.7614C8.84807 25.6622 9.88481 26.2016 10.7259 26.7234C10.8675 26.8137 10.8344 27.0183 10.6802 27.0731C9.25168 27.5403 7.45214 27.9605 6.33152 26.7579C5.689 27.122 5.02804 27.4417 4.35151 27.705C5.13261 27.8489 5.86788 28.2771 6.37421 28.8923C6.43921 28.9751 6.43903 29.1058 6.33698 29.1612C5.0466 29.8616 3.40311 29.5039 2.59125 28.2709C1.75744 28.4704 0.921305 28.5818 0.0795985 28.583C0.00502116 28.5848 -0.00941813 28.4764 0.062351 28.4519C0.795638 28.221 1.5243 28.0065 2.23899 27.7795ZM2.76373 27.6106C2.76484 27.6064 2.76069 27.6053 2.76174 27.6014C3.01498 26.5752 3.47284 25.6473 4.08472 24.7954C3.01695 25.3638 2.4353 26.4937 2.50591 27.6942C2.5923 27.6649 2.67845 27.6357 2.76373 27.6106ZM5.74988 29.0253C4.9149 28.7581 4.08517 28.4703 3.27269 28.1348C3.24826 28.1282 3.24364 28.0966 3.25633 28.0825C3.12395 28.1211 2.99437 28.165 2.8631 28.1994C3.58844 29.039 4.71573 29.3715 5.74988 29.0253ZM4.20687 24.8761C3.69231 25.6579 3.31973 26.4953 3.04527 27.3896C3.80572 26.7475 4.20682 25.8526 4.20687 24.8761ZM5.95117 28.9572C5.95644 28.9542 5.95643 28.9542 5.96139 28.9513C5.32419 28.2705 4.51867 27.9588 3.65037 27.9616C3.53523 28.0004 3.41834 28.03 3.29922 28.068C4.19512 28.3209 5.08042 28.6281 5.95117 28.9572ZM11.7217 2.13424C11.8164 2.51262 11.9993 2.87114 12.2403 3.17559C12.6406 3.66649 13.134 3.95555 13.7145 4.13282C13.2508 3.09755 12.5727 2.17924 11.6621 1.49477C11.6586 1.52422 11.6588 1.57245 11.6431 1.64655C11.6193 1.7842 11.6852 1.9938 11.7217 2.13424ZM13.8111 4.16316C13.8599 4.17625 13.9088 4.18935 13.9616 4.20349C13.986 4.21004 14.0041 4.22353 14.0183 4.23623C14.0868 3.55724 13.8723 2.89381 13.4391 2.36346C13.1269 1.98338 12.443 1.41231 11.8899 1.4427C12.8292 2.11729 13.5125 3.03256 13.8111 4.16316ZM6.0674 26.2464C6.03706 26.2296 6.01813 26.2025 6.03011 26.1578C6.28095 25.2051 6.54009 24.2545 6.82454 23.3063C6.07724 24.1915 5.03538 25.3639 6.01566 26.2762C6.03115 26.2673 6.05191 26.2553 6.0674 26.2464ZM6.21176 26.163C6.26319 26.1333 6.31492 26.1035 6.36634 26.0738C6.31158 26.0505 6.28107 25.9855 6.33514 25.9303C7.1154 25.1498 7.4144 24.0662 7.05722 23.0243C7.03735 23.0496 7.01753 23.0747 6.99765 23.1C6.75774 24.1254 6.48832 25.1475 6.21176 26.163ZM10.1265 26.8459C9.05312 26.6541 7.99097 26.6005 6.90127 26.6487C6.85217 26.6531 6.82622 26.6199 6.81856 26.583C6.80834 26.5889 6.80307 26.592 6.79676 26.5989C6.73241 26.6602 6.65806 26.6445 6.60482 26.5999C6.59956 26.6029 6.59459 26.6058 6.58933 26.6088C7.59458 27.4446 8.91824 27.2064 10.1265 26.8459ZM14.5545 7.26121C14.5429 7.22328 14.5342 7.19031 14.5268 7.1535C14.5002 7.15501 14.4729 7.14351 14.4642 7.11054C14.1565 6.16053 13.2061 5.57461 12.2325 5.59707C12.9729 6.20081 13.7428 6.76039 14.5545 7.26121ZM9.06331 23.9803C9.05326 23.969 9.04041 23.9525 9.04169 23.9311C8.99503 22.9989 8.87556 22.0297 8.93404 21.095L8.93931 21.092C8.93236 21.0857 8.92925 21.0806 8.92119 21.0785C8.49454 22.0365 8.08776 23.2615 9.03993 24.0353C9.04823 24.02 9.05788 24.0006 9.06331 23.9803ZM14.9686 10.8898C14.9662 10.8499 14.9648 10.806 14.9624 10.7661C14.1739 10.3412 13.4977 9.74149 13.0336 8.96771C12.976 8.87373 13.1204 8.79038 13.1832 8.88133C13.6594 9.59316 14.2399 10.1758 14.9576 10.6208C14.953 10.4758 14.9482 10.3305 14.9394 10.1844C14.5257 9.40237 13.7968 8.90171 12.9099 8.72953C12.9823 9.89118 13.8653 10.712 14.9686 10.8898ZM9.11424 21.2522C9.20538 22.035 9.18738 22.8498 9.19365 23.6405C9.48687 22.8384 9.70545 21.877 9.11424 21.2522ZM11.517 21.5255C11.2232 20.6534 10.9131 19.7771 10.677 18.8855C10.6634 18.8384 10.6886 18.8101 10.7223 18.7974C10.6719 18.7577 10.6174 18.7169 10.5631 18.6762C10.078 19.7712 10.5304 20.9296 11.4492 21.6163C11.474 21.5881 11.4921 21.5537 11.517 21.5255ZM14.5216 7.33515C13.7357 6.93286 13.0065 6.44969 12.3307 5.88053C12.7466 6.78541 13.4154 7.75364 14.5297 7.33731C14.5297 7.33731 14.5258 7.33626 14.5216 7.33515ZM9.84286 26.6348C8.92102 26.122 7.84962 25.7608 6.96666 26.4525C7.93006 26.388 8.89081 26.4624 9.84286 26.6348ZM12.5778 24.7738C11.52 24.752 10.4574 24.7158 9.39806 24.6671C9.3634 24.6664 9.34329 24.6438 9.33346 24.6149C9.32213 24.625 9.31055 24.635 9.29922 24.645C10.2611 25.3825 11.5836 25.4098 12.5778 24.7738ZM12.7141 24.6883C12.741 24.6693 12.7708 24.6556 12.7976 24.6366C11.7496 24.1072 10.683 24.1179 9.56568 24.4158C9.53038 24.4498 9.4911 24.483 9.45165 24.5159C10.5426 24.5598 11.6295 24.62 12.7141 24.6883ZM13.1519 12.1381C13.6543 12.9311 14.1557 13.728 14.6377 14.5327C14.6715 14.3412 14.7085 14.155 14.737 13.9665C14.4322 13.1524 13.9031 12.4746 13.1085 12.0566C13.0507 12.028 12.9932 11.9995 12.9354 11.9709C12.6143 13.2013 13.3877 14.4636 14.5924 14.7992C14.5948 14.7737 14.6014 14.7492 14.604 14.7238C14.0427 13.9064 13.502 13.0773 12.9666 12.2451C12.908 12.1553 13.0094 12.0691 13.0907 12.0909C13.1149 12.0976 13.1371 12.1124 13.1519 12.1381ZM12.0651 16.9426C12.2066 17.6344 12.6896 18.2564 13.4185 18.3341C12.8097 17.4995 12.3654 16.5218 12.0991 15.5308C12.0923 15.5072 12.0936 15.4859 12.0991 15.4653C12.1263 15.3637 12.2942 15.339 12.334 15.4673C12.6282 16.4354 13.0185 17.3376 13.4752 18.2359C13.5578 18.0574 13.6376 17.874 13.708 17.6923C13.4444 16.7237 12.8824 15.8931 12.1215 15.2184C12.113 15.2989 12.1045 15.3796 12.095 15.464C12.0418 15.9556 11.959 16.4436 12.0651 16.9426ZM15.1146 7.30235C15.1148 7.28487 15.1203 7.2646 15.1368 7.25174C15.1937 7.20153 15.2467 7.15051 15.2997 7.09925C16.0416 6.34772 16.2948 5.25604 15.8999 4.27401C15.5207 5.13583 15.329 6.09577 15.2905 7.03578C15.2903 7.05326 15.2829 7.06436 15.2755 7.07522C15.2433 7.1145 15.1636 7.10181 15.1597 7.03554C15.1479 6.03861 15.3681 5.15148 15.7783 4.25454C15.212 4.64328 14.8734 5.22396 14.7509 5.89296C14.8924 6.35772 15.0142 6.8308 15.1146 7.30235ZM11.9718 20.9019C11.836 20.1071 11.4549 19.399 10.8384 18.885C11.133 19.7051 11.3733 20.5498 11.6156 21.3862C11.7365 21.2269 11.8578 21.0674 11.9718 20.9019ZM15.5308 10.8574C16.1924 10.0799 16.6924 9.3204 16.9003 8.31686C16.2737 8.58917 15.7795 9.06716 15.4557 9.67356C15.4857 10.0825 15.5063 10.4936 15.5149 10.9013C15.518 10.8888 15.5181 10.8716 15.5308 10.8574ZM15.7007 10.9553C16.9558 11.3309 17.0909 9.31379 17.0093 8.33299C16.8854 9.31555 16.4744 10.3126 15.7007 10.9553ZM14.1808 18.6125C14.9478 18.1903 15.7439 17.8063 16.5316 17.4203C16.5924 17.3232 16.6452 17.2239 16.6969 17.1289C15.5954 16.9123 14.5767 17.5415 14.0881 18.5353C14.0807 18.5464 14.0715 18.5483 14.0655 18.5554C14.0735 18.5575 14.0788 18.5545 14.0827 18.5555C14.1161 18.5776 14.1475 18.5904 14.1808 18.6125ZM15.1468 14.8608C15.149 14.8528 15.147 14.8433 15.1534 14.8364C15.7613 14.0969 16.5972 13.4667 17.338 12.8324C17.3349 12.8272 17.336 12.8233 17.3371 12.8191C16.3744 12.9141 15.6185 13.5226 15.2228 14.3973C15.1947 14.551 15.1656 14.7087 15.1333 14.8614C15.1346 14.8576 15.1427 14.8597 15.1468 14.8608ZM14.3824 18.7057C15.1983 19.0116 15.8925 18.3737 16.3741 17.6659C15.7167 18.0213 15.055 18.3758 14.3824 18.7057ZM17.3232 13.0508C16.6712 13.6782 16.0102 14.3555 15.2746 14.8558C16.3117 14.8896 17.2112 14.0541 17.3232 13.0508Z" fill="url(#paint0_linear_7310_11802)"/>
<path d="M4.08475 24.7955C3.01697 25.3638 2.43533 26.4938 2.50594 27.6942C2.59233 27.665 2.67841 27.6359 2.76376 27.6106C2.76487 27.6065 2.76072 27.6054 2.76176 27.6015C3.01507 26.575 3.47293 25.6471 4.08475 24.7955Z" fill="#DEEAFB"/>
<path d="M3.25619 28.0827C3.12381 28.1213 2.99423 28.1651 2.86296 28.1996C3.5883 29.0392 4.71534 29.3716 5.74974 29.0255C4.91476 28.7583 4.08503 28.4705 3.27255 28.135C3.24836 28.1285 3.24374 28.0969 3.25619 28.0827Z" fill="#DEEAFB"/>
<path d="M4.20696 24.8759C3.69241 25.6577 3.31982 26.4951 3.04536 27.3894C3.80581 26.7474 4.20692 25.8524 4.20696 24.8759Z" fill="#DEEAFB"/>
<path d="M3.65072 27.962C3.53558 28.0008 3.41868 28.0305 3.29957 28.0685C4.19516 28.3216 5.08053 28.6285 5.95152 28.9577C5.95679 28.9547 5.95679 28.9547 5.96174 28.9518C5.32454 28.271 4.51878 27.9592 3.65072 27.962Z" fill="#DEEAFB"/>
<path d="M11.6619 1.49512C11.6585 1.52457 11.6587 1.5728 11.643 1.6469C11.6193 1.78431 11.6852 1.9939 11.7216 2.13435C11.8164 2.51273 11.9992 2.87124 12.2402 3.1757C12.6406 3.6666 13.134 3.95566 13.7144 4.13293C13.2507 3.09766 12.5727 2.17934 11.6619 1.49512Z" fill="#DEEAFB"/>
<path d="M13.4388 2.36336C13.1266 1.98329 12.4427 1.41221 11.8896 1.44261C12.8291 2.11725 13.5125 3.03253 13.811 4.16313C13.8599 4.17622 13.9088 4.18932 13.9615 4.20346C13.986 4.21 14.0041 4.2235 14.0182 4.23619C14.0866 3.5569 13.8721 2.89347 13.4388 2.36336Z" fill="#DEEAFB"/>
<path d="M6.82457 23.3069C6.07727 24.1921 5.03541 25.3644 6.01569 26.2768C6.03118 26.2678 6.05194 26.2559 6.06743 26.2469C6.0371 26.2301 6.01817 26.2031 6.03015 26.1584C6.28098 25.2056 6.54013 24.2551 6.82457 23.3069Z" fill="#DEEAFB"/>
<path d="M7.05724 23.0245C7.03737 23.0498 7.01755 23.0749 6.99767 23.1002C6.7577 24.1257 6.48834 25.1476 6.21178 26.1632C6.26321 26.1335 6.31494 26.1036 6.36637 26.0739C6.3116 26.0506 6.2811 25.9856 6.33516 25.9304C7.11543 25.1499 7.41449 24.0661 7.05724 23.0245Z" fill="#DEEAFB"/>
<path d="M6.60481 26.6002C6.59954 26.6032 6.59458 26.6061 6.58932 26.6091C7.5945 27.4452 8.91816 27.207 10.1264 26.8465C9.05305 26.6547 7.99089 26.6011 6.90119 26.6492C6.85209 26.6536 6.82614 26.6205 6.81848 26.5836C6.80826 26.5895 6.803 26.5925 6.79668 26.5995C6.7324 26.6606 6.65799 26.6451 6.60481 26.6002Z" fill="#DEEAFB"/>
<path d="M14.4641 7.11067C14.1565 6.16067 13.206 5.57474 12.2324 5.5972C12.973 6.20101 13.7428 6.76028 14.5544 7.26134C14.5429 7.22341 14.5342 7.19045 14.5267 7.15363C14.5001 7.15515 14.4726 7.14357 14.4641 7.11067Z" fill="#DEEAFB"/>
<path d="M8.92118 21.0791C8.49453 22.0371 8.08775 23.262 9.03993 24.0359C9.04847 24.0207 9.05781 24.0014 9.06324 23.9812C9.05319 23.9698 9.04034 23.9533 9.04162 23.9319C8.99496 22.9997 8.87548 22.0305 8.93397 21.0959L8.93924 21.0928C8.93235 21.0863 8.92925 21.0812 8.92118 21.0791Z" fill="#DEEAFB"/>
<path d="M14.9393 10.1846C14.5256 9.40261 13.7967 8.90195 12.9098 8.72977C12.9822 9.89117 13.8652 10.712 14.9682 10.89C14.9658 10.85 14.9645 10.8062 14.9621 10.7663C14.1735 10.3413 13.4973 9.74166 13.0332 8.96788C12.9756 8.8739 13.12 8.79055 13.1828 8.8815C13.6591 9.59333 14.2396 10.176 14.9573 10.621C14.9529 10.476 14.9481 10.3307 14.9393 10.1846Z" fill="#DEEAFB"/>
<path d="M9.11434 21.252C9.20548 22.0347 9.18748 22.8496 9.19375 23.6402C9.48696 22.8381 9.70555 21.8767 9.11434 21.252Z" fill="#DEEAFB"/>
<path d="M10.5633 18.6763C10.0782 19.7714 10.5306 20.9298 11.4493 21.6165C11.4744 21.5883 11.4923 21.5539 11.5173 21.5257C11.2236 20.6536 10.9135 19.7773 10.6774 18.8858C10.6638 18.8386 10.6889 18.8103 10.7227 18.7976C10.6721 18.7579 10.6176 18.7171 10.5633 18.6763Z" fill="#DEEAFB"/>
<path d="M12.3306 5.88086C12.7465 6.78574 13.4154 7.75397 14.5296 7.33764C14.5296 7.33764 14.5255 7.33652 14.5216 7.33548C13.7359 6.93326 13.0064 6.45002 12.3306 5.88086Z" fill="#DEEAFB"/>
<path d="M9.84278 26.6352C8.92094 26.1224 7.84953 25.7612 6.96658 26.453C7.92997 26.3885 8.89073 26.4629 9.84278 26.6352Z" fill="#DEEAFB"/>
<path d="M9.33347 24.6157C9.32213 24.6257 9.31056 24.6357 9.29922 24.6458C10.2612 25.383 11.5834 25.4105 12.5776 24.7745C11.5197 24.7527 10.4571 24.7164 9.39782 24.6678C9.36341 24.6672 9.34329 24.6445 9.33347 24.6157Z" fill="#DEEAFB"/>
<path d="M9.56558 24.416C9.53028 24.45 9.491 24.4832 9.45155 24.5161C10.5428 24.56 11.6294 24.6202 12.714 24.6885C12.7409 24.6695 12.7707 24.6558 12.7975 24.6368C11.7492 24.1074 10.6829 24.1181 9.56558 24.416Z" fill="#DEEAFB"/>
<path d="M12.9664 12.2451C12.9077 12.1553 13.0091 12.0691 13.0904 12.0909L13.1083 12.0564C13.0505 12.0278 12.9929 11.9993 12.9351 11.9707C12.6141 13.2011 13.3875 14.4634 14.5922 14.799C14.5946 14.7735 14.6012 14.749 14.6038 14.7235C14.0423 13.9067 13.5017 13.0773 12.9664 12.2451Z" fill="#DEEAFB"/>
<path d="M12.1217 15.2188C12.1132 15.2992 12.1047 15.38 12.0951 15.4643L12.0993 15.4655C12.1265 15.3638 12.2944 15.3392 12.3342 15.4674C12.6284 16.4355 13.0188 17.3377 13.4754 18.236C13.5581 18.0576 13.6378 17.8742 13.7083 17.6924C13.4445 16.7241 12.8825 15.8935 12.1217 15.2188Z" fill="#DEEAFB"/>
<path d="M12.0992 15.465L12.0951 15.4639C12.0419 15.9553 11.9591 16.4432 12.065 16.9422C12.2065 17.6339 12.6895 18.2559 13.4184 18.3337C12.8095 17.4991 12.3653 16.5214 12.099 15.5304C12.0925 15.5067 12.0938 15.4853 12.0992 15.465Z" fill="#DEEAFB"/>
<path d="M15.7787 4.2541C15.2123 4.64284 14.8737 5.22352 14.7512 5.89252C14.8927 6.35752 15.0142 6.83054 15.1147 7.30185C15.1149 7.28437 15.1203 7.26409 15.1369 7.25124C15.1938 7.20102 15.2468 7.15001 15.2998 7.09875L15.2758 7.07478C15.2436 7.11406 15.1639 7.10137 15.16 7.0351C15.148 6.0381 15.3683 5.15129 15.7787 4.2541Z" fill="#DEEAFB"/>
<path d="M13.1082 12.0568L13.0904 12.0913C13.1148 12.0979 13.1371 12.1125 13.1518 12.1384C13.6543 12.9314 14.1556 13.7283 14.6376 14.533C14.6714 14.3415 14.7085 14.1553 14.737 13.9668C14.4319 13.1526 13.9031 12.4749 13.1082 12.0568Z" fill="#DEEAFB"/>
<path d="M10.8385 18.8857C11.133 19.7058 11.3733 20.5505 11.6156 21.3869C11.7368 21.2277 11.8579 21.0682 11.9721 20.9026C11.836 20.1078 11.4549 19.3997 10.8385 18.8857Z" fill="#DEEAFB"/>
<path d="M15.9 4.27393C15.5209 5.13574 15.3291 6.09569 15.2907 7.03569C15.2904 7.05318 15.283 7.06428 15.2756 7.07514L15.2996 7.0991C16.0417 6.34764 16.2952 5.25602 15.9 4.27393Z" fill="#DEEAFB"/>
<path d="M12.1528 21.626C12.1832 21.6428 12.2145 21.6556 12.2451 21.6725C13.1349 21.4097 14.0553 21.2289 14.9613 21.0359C15.0178 21.0204 15.0505 21.0774 15.0385 21.1221C15.0718 21.0787 15.1124 21.0416 15.1427 20.9932C14.08 20.7126 12.8493 20.6531 12.1528 21.626Z" fill="#DEEAFB"/>
<path d="M15.4556 9.67358C15.4856 10.0825 15.5061 10.4937 15.5147 10.9013C15.5179 10.8891 15.5182 10.8716 15.5308 10.8577C16.1924 10.0803 16.6924 9.32073 16.9003 8.31719C16.2738 8.58925 15.7794 9.06718 15.4556 9.67358Z" fill="#DEEAFB"/>
<path d="M12.494 21.801C13.3734 22.1631 14.4236 21.9038 15.0134 21.1508C15.0082 21.1538 15.0032 21.1567 14.9979 21.1597C14.1698 21.3869 13.3345 21.625 12.494 21.801Z" fill="#DEEAFB"/>
<path d="M15.7007 10.9554C16.9557 11.331 17.0908 9.31393 17.0093 8.33313C16.8853 9.31569 16.4744 10.3127 15.7007 10.9554Z" fill="#DEEAFB"/>
<path d="M14.0651 18.5552C14.0731 18.5574 14.0784 18.5543 14.0823 18.5554C14.1157 18.5774 14.1471 18.5903 14.1805 18.6123C14.9475 18.1901 15.7435 17.8061 16.5312 17.4201C16.592 17.323 16.6448 17.2238 16.6965 17.1287C15.595 16.9121 14.5764 17.5413 14.0878 18.5351C14.0806 18.5463 14.0714 18.5483 14.0651 18.5552Z" fill="#DEEAFB"/>
<path d="M15.2231 14.3977C15.195 14.5515 15.1659 14.7092 15.1336 14.8619C15.1347 14.8577 15.1428 14.8599 15.1469 14.861C15.1491 14.8529 15.1472 14.8435 15.1535 14.8366C15.7614 14.0971 16.5973 13.4668 17.3381 12.8326C17.335 12.8273 17.3361 12.8234 17.3372 12.8193C16.3746 12.9149 15.6188 13.5231 15.2231 14.3977Z" fill="#DEEAFB"/>
<path d="M14.3823 18.7054C15.1983 19.0113 15.8924 18.3734 16.3741 17.6656C15.7166 18.021 15.0549 18.3756 14.3823 18.7054Z" fill="#DEEAFB"/>
<path d="M17.3232 13.0514C16.6712 13.6788 16.0102 14.3561 15.2746 14.8564C16.3117 14.8902 17.2112 14.0547 17.3232 13.0514Z" fill="#DEEAFB"/>
<defs>
<linearGradient id="paint0_linear_7310_11802" x1="26.3187" y1="-57.9966" x2="40.585" y2="-53.4054" gradientUnits="userSpaceOnUse">
<stop stop-color="#5048E5"/>
<stop offset="1" stop-color="#8B63E9"/>
</linearGradient>
</defs>
</svg>
